<?xml version="1.0" encoding="UTF-8" standalone="no"?>
<!-- Generator: Adobe Illustrator 19.0.0, SVG Export Plug-In . SVG Version: 6.00 Build 0)  -->

<svg
   xmlns:dc="http://purl.org/dc/elements/1.1/"
   xmlns:cc="http://creativecommons.org/ns#"
   xmlns:rdf="http://www.w3.org/1999/02/22-rdf-syntax-ns#"
   xmlns:svg="http://www.w3.org/2000/svg"
   xmlns="http://www.w3.org/2000/svg"
   xmlns:sodipodi="http://sodipodi.sourceforge.net/DTD/sodipodi-0.dtd"
   xmlns:inkscape="http://www.inkscape.org/namespaces/inkscape"
   version="1.1"
   id="Layer_1"
   x="0px"
   y="0px"
   viewBox="0 0 132.28347 44.459494"
   xml:space="preserve"
   sodipodi:docname="doddle60LogoMonochromatic.svg"
   inkscape:version="0.92.4 5da689c313, 2019-01-14"
   width="132.28346"
   height="44.459492"><metadata
   id="metadata1057"><rdf:RDF><cc:Work
       rdf:about=""><dc:format>image/svg+xml</dc:format><dc:type
         rdf:resource="http://purl.org/dc/dcmitype/StillImage" /><dc:title></dc:title></cc:Work></rdf:RDF></metadata><defs
   id="defs1055">
	
	
	
	
	
	

	
	
	
	
	

	
	
	
	
	
	

	
	

	
	
	
	
	















</defs><sodipodi:namedview
   pagecolor="#ffffff"
   bordercolor="#666666"
   borderopacity="1"
   objecttolerance="10"
   gridtolerance="10"
   guidetolerance="10"
   inkscape:pageopacity="0"
   inkscape:pageshadow="2"
   inkscape:window-width="1920"
   inkscape:window-height="1052"
   id="namedview1053"
   showgrid="false"
   inkscape:zoom="2.3920051"
   inkscape:cx="-23.041176"
   inkscape:cy="-16.804468"
   inkscape:window-x="1920"
   inkscape:window-y="294"
   inkscape:window-maximized="1"
   inkscape:current-layer="Layer_1"
   fit-margin-top="0"
   fit-margin-left="0"
   fit-margin-right="0"
   fit-margin-bottom="0" />
























<rect
   style="opacity:1;vector-effect:none;fill:#ffffff;fill-opacity:1;stroke:none;stroke-width:30.23622131;stroke-linecap:round;stroke-linejoin:round;stroke-miterlimit:4;stroke-dasharray:none;stroke-dashoffset:0;stroke-opacity:1;paint-order:normal"
   id="rect862"
   width="177.88423"
   height="67.934639"
   x="-22.575201"
   y="-11.351443"
   ry="0" /><g
   id="g860"
   transform="scale(0.07046761)"
   inkscape:export-xdpi="10000"
   inkscape:export-ydpi="10000"><g
     transform="translate(92.71446,59.459987)"
     id="g851"><path
       style="fill:#202121"
       d="m 1648.9176,130.81 c -13.45,0 -26.167,6.43 -34.216,17.049 h -6.174 v -56.48 c 0,-4.482 -3.631,-8.113 -8.113,-8.113 h -27.149 c -4.482,0 -8.113,3.631 -8.113,8.113 0,4.482 3.631,8.113 8.113,8.113 h 19.036 v 56.48 c 0,4.482 3.631,8.113 8.113,8.113 h 18.592 c 2.862,0 5.513,-1.509 6.975,-3.97 4.792,-8.067 13.581,-13.079 22.937,-13.079 14.695,0 26.651,11.956 26.651,26.652 0,14.696 -11.956,26.652 -26.651,26.652 -9.358,0 -18.147,-5.011 -22.936,-13.077 -1.462,-2.461 -4.114,-3.971 -6.976,-3.971 h -18.592 c -4.482,0 -8.113,3.631 -8.113,8.113 v 56.481 h -56.481 c -4.482,0 -8.113,3.631 -8.113,8.113 v 18.594 c 0,2.863 1.51,5.516 3.972,6.976 8.065,4.788 13.076,13.577 13.076,22.936 0,14.694 -11.955,26.649 -26.65,26.649 -14.696,0 -26.652,-11.955 -26.652,-26.649 0,-9.359 5.01,-18.147 13.076,-22.936 2.462,-1.462 3.972,-4.113 3.972,-6.976 v -18.594 c 0,-4.482 -3.631,-8.113 -8.113,-8.113 h -56.481 v -48.368 h 6.174 c 8.046,10.617 20.763,17.048 34.216,17.048 23.641,0 42.876,-19.235 42.876,-42.878 0,-23.643 -19.234,-42.878 -42.876,-42.878 -13.451,0 -26.167,6.43 -34.215,17.049 h -6.176 V 99.492 h 102.312 c 4.482,0 8.113,-3.631 8.113,-8.113 0,-4.482 -3.631,-8.113 -8.113,-8.113 h -110.424 -56.481 v -6.174 c 10.617,-8.046 17.047,-20.762 17.047,-34.215 0,-23.642 -19.234,-42.877 -42.878,-42.877 -23.644,0 -42.877,19.235 -42.877,42.877 0,13.45 6.429,26.165 17.048,34.214 v 6.176 h -56.479 v 0 0 c -4.482,0 -8.113,3.631 -8.113,8.113 V 256 312.482 h -6.176 c -8.046,-10.617 -20.76,-17.048 -34.214,-17.048 -23.643,0 -42.878,19.235 -42.878,42.877 0,23.642 19.235,42.878 42.878,42.878 13.45,0 26.165,-6.43 34.214,-17.05 h 6.176 v 56.481 0 0 c 0,4.482 3.631,8.113 8.113,8.113 h 28.769 c 4.482,0 8.113,-3.631 8.113,-8.113 0,-4.482 -3.631,-8.113 -8.113,-8.113 h -20.657 v -56.481 c 0,-4.482 -3.631,-8.113 -8.113,-8.113 h -18.593 c -2.862,0 -5.515,1.509 -6.975,3.971 -4.791,8.067 -13.579,13.079 -22.934,13.079 -14.696,0 -26.652,-11.956 -26.652,-26.652 0,-14.696 11.956,-26.652 26.652,-26.652 9.358,0 18.145,5.01 22.932,13.076 1.461,2.462 4.113,3.972 6.976,3.972 h 18.593 c 4.482,0 8.113,-3.631 8.113,-8.113 v -56.481 h 56.482 c 4.482,0 8.113,-3.631 8.113,-8.113 v -18.593 c 0,-2.862 -1.509,-5.515 -3.971,-6.975 -8.067,-4.792 -13.079,-13.58 -13.079,-22.935 0,-14.696 11.956,-26.652 26.651,-26.652 14.696,0 26.652,11.956 26.652,26.652 0,9.356 -5.011,18.144 -13.077,22.935 -2.462,1.461 -3.971,4.113 -3.971,6.975 V 256 c 0,4.482 3.631,8.113 8.113,8.113 h 56.482 v 48.368 h -6.178 c -8.047,-10.618 -20.762,-17.049 -34.213,-17.049 -23.642,0 -42.878,19.235 -42.878,42.879 0,23.644 19.235,42.879 42.878,42.879 13.451,0 26.166,-6.431 34.214,-17.051 h 6.177 v 48.37 h -102.491 c -4.482,0 -8.113,3.631 -8.113,8.113 0,4.482 3.631,8.113 8.113,8.113 h 110.605 56.481 v 6.174 c -10.616,8.046 -17.046,20.762 -17.046,34.215 0,23.642 19.234,42.877 42.876,42.877 23.642,0 42.878,-19.234 42.878,-42.877 0,-13.45 -6.429,-26.165 -17.048,-34.214 v -6.176 h 56.479 c 4.482,0 8.113,-3.631 8.113,-8.113 v -55.044 -10.269 -99.309 -56.481 h 6.173 c 8.047,10.617 20.765,17.048 34.217,17.048 23.642,0 42.877,-19.235 42.877,-42.878 0,-23.643 -19.235,-42.878 -42.877,-42.878 z m -269.605,110.901 c 10.617,-8.047 17.048,-20.764 17.048,-34.214 0,-23.642 -19.235,-42.878 -42.878,-42.878 -23.643,0 -42.877,19.235 -42.877,42.878 0,13.45 6.43,26.166 17.05,34.215 v 6.174 h -48.369 V 99.492 h 56.48 c 4.482,0 8.113,-3.631 8.113,-8.113 V 72.788 c 0,-2.862 -1.509,-5.514 -3.97,-6.975 -8.066,-4.792 -13.078,-13.58 -13.078,-22.935 0,-14.696 11.955,-26.652 26.651,-26.652 14.695,0 26.651,11.956 26.651,26.651 0,9.358 -5.011,18.145 -13.076,22.934 -2.461,1.462 -3.971,4.114 -3.971,6.976 V 91.38 c 0,4.482 3.631,8.113 8.113,8.113 h 56.481 v 56.48 c 0,4.482 3.631,8.113 8.113,8.113 h 18.593 c 2.862,0 5.515,-1.509 6.975,-3.97 4.791,-8.067 13.58,-13.079 22.936,-13.079 14.695,0 26.65,11.956 26.65,26.652 0,14.696 -11.955,26.652 -26.65,26.652 -9.358,0 -18.146,-5.011 -22.935,-13.076 -1.462,-2.462 -4.113,-3.972 -6.976,-3.972 h -18.593 c -4.482,0 -8.113,3.631 -8.113,8.113 v 56.481 h -48.369 v -6.176 z m 156.51,170.797 c -4.482,0 -8.113,3.631 -8.113,8.113 v 18.593 c 0,2.862 1.509,5.514 3.97,6.975 8.066,4.792 13.078,13.58 13.078,22.935 0,14.695 -11.956,26.651 -26.652,26.651 -14.695,0 -26.65,-11.956 -26.65,-26.651 0,-9.358 5.009,-18.146 13.075,-22.934 2.461,-1.462 3.971,-4.114 3.971,-6.976 v -18.593 c 0,-4.482 -3.631,-8.113 -8.113,-8.113 h -56.481 v -56.483 c 0,-4.482 -3.631,-8.113 -8.113,-8.113 h -18.594 c -2.862,0 -5.515,1.51 -6.976,3.971 -4.79,8.069 -13.577,13.08 -22.932,13.08 -14.696,0 -26.652,-11.957 -26.652,-26.654 0,-14.696 11.956,-26.654 26.652,-26.654 9.355,0 18.143,5.012 22.934,13.078 1.461,2.462 4.113,3.971 6.975,3.971 h 18.594 c 4.482,0 8.113,-3.631 8.113,-8.113 v -56.48 h 48.368 v 6.177 c -10.617,8.046 -17.048,20.764 -17.048,34.217 0,23.641 19.235,42.875 42.878,42.875 23.641,0 42.876,-19.233 42.876,-42.875 0,-13.454 -6.43,-26.171 -17.048,-34.217 v -6.177 h 48.368 v 91.198 10.269 46.93 h -56.479 v 0 z"
       id="path1020"
       inkscape:connector-curvature="0" /><flowRoot
       xml:space="preserve"
       id="flowRoot817"
       style="font-style:normal;font-weight:normal;font-size:40px;line-height:1.25;font-family:sans-serif;letter-spacing:0px;word-spacing:0px;fill:#202121;fill-opacity:1;stroke:#202121;stroke-width:0.77830386;stroke-miterlimit:4;stroke-dasharray:none;stroke-opacity:1"
       transform="matrix(6.1836952,0,0,6.1836952,3973.9088,-67.50821)"><flowRegion
         id="flowRegion819"
         style="fill:#202121;fill-opacity:1;stroke:#202121;stroke-width:0.77830386;stroke-miterlimit:4;stroke-dasharray:none;stroke-opacity:1"><rect
           id="rect821"
           width="383.11389"
           height="248.31456"
           x="-643.25299"
           y="31.926157"
           style="fill:#202121;fill-opacity:1;stroke:#202121;stroke-width:0.77830386;stroke-miterlimit:4;stroke-dasharray:none;stroke-opacity:1" /></flowRegion><flowPara
         id="flowPara823"
         style="font-style:normal;font-variant:normal;font-weight:normal;font-stretch:normal;font-family:oneday;-inkscape-font-specification:oneday;fill:#202121;fill-opacity:1;stroke:#202121;stroke-width:0.77830386;stroke-miterlimit:4;stroke-dasharray:none;stroke-opacity:1">DODDLE60</flowPara></flowRoot></g><rect
     ry="112.48959"
     y="15.118111"
     x="15.118111"
     height="600.68475"
     width="1846.9873"
     id="rect844"
     style="opacity:1;vector-effect:none;fill:none;fill-opacity:1;stroke:#202121;stroke-width:30.23622131;stroke-linecap:round;stroke-linejoin:round;stroke-miterlimit:4;stroke-dasharray:none;stroke-dashoffset:0;stroke-opacity:1;paint-order:normal" /></g></svg>