<?xml version="1.0" encoding="UTF-8" standalone="no"?>
<!-- Generator: Adobe Illustrator 19.0.0, SVG Export Plug-In . SVG Version: 6.00 Build 0)  -->

<svg
   xmlns:dc="http://purl.org/dc/elements/1.1/"
   xmlns:cc="http://creativecommons.org/ns#"
   xmlns:rdf="http://www.w3.org/1999/02/22-rdf-syntax-ns#"
   xmlns:svg="http://www.w3.org/2000/svg"
   xmlns="http://www.w3.org/2000/svg"
   xmlns:sodipodi="http://sodipodi.sourceforge.net/DTD/sodipodi-0.dtd"
   xmlns:inkscape="http://www.inkscape.org/namespaces/inkscape"
   version="1.1"
   id="Layer_1"
   x="0px"
   y="0px"
   viewBox="0 0 1691.7946 512.001"
   xml:space="preserve"
   sodipodi:docname="puzzle.svg"
   inkscape:version="0.92.4 5da689c313, 2019-01-14"
   width="1691.7946"
   height="512.00098"><metadata
   id="metadata1057"><rdf:RDF><cc:Work
       rdf:about=""><dc:format>image/svg+xml</dc:format><dc:type
         rdf:resource="http://purl.org/dc/dcmitype/StillImage" /><dc:title></dc:title></cc:Work></rdf:RDF></metadata><defs
   id="defs1055">
	
	
	
	
	
	

	
	
	
	
	

	
	
	
	
	
	

	
	

	
	
	
	
	















</defs><sodipodi:namedview
   pagecolor="#ffffff"
   bordercolor="#666666"
   borderopacity="1"
   objecttolerance="10"
   gridtolerance="10"
   guidetolerance="10"
   inkscape:pageopacity="0"
   inkscape:pageshadow="2"
   inkscape:window-width="1920"
   inkscape:window-height="1052"
   id="namedview1053"
   showgrid="false"
   inkscape:zoom="0.42285076"
   inkscape:cx="745.27569"
   inkscape:cy="376.13966"
   inkscape:window-x="1920"
   inkscape:window-y="294"
   inkscape:window-maximized="1"
   inkscape:current-layer="Layer_1"
   fit-margin-top="0"
   fit-margin-left="0"
   fit-margin-right="0"
   fit-margin-bottom="0" />
<path
   style="fill:#fcd638"
   d="m 1535.8226,414.671 h 58.642 V 261.949 h -52.695 v 9.415 l 0.857,0.649 c 10.138,7.682 16.191,19.829 16.191,32.493 0,22.449 -18.264,40.712 -40.713,40.712 -22.45,0 -40.715,-18.263 -40.715,-40.712 0,-12.663 6.053,-24.81 16.191,-32.493 l 0.857,-0.649 v -9.415 h -52.694 v 58.644 c 0,3.281 -2.669,5.949 -5.949,5.949 h -18.594 c -2.09,0 -4.049,-1.115 -5.115,-2.912 -5.178,-8.72 -14.679,-14.136 -24.794,-14.136 -15.888,0 -28.816,12.927 -28.816,28.817 0,15.889 12.927,28.817 28.816,28.817 10.116,0 19.616,-5.418 24.793,-14.138 1.067,-1.797 3.028,-2.912 5.115,-2.912 h 18.594 c 3.281,0 5.949,2.67 5.949,5.949 v 58.646 h 58.644 c 3.281,0 5.949,2.67 5.949,5.949 v 18.593 c 0,2.089 -1.115,4.049 -2.911,5.115 -8.719,5.175 -14.134,14.676 -14.134,24.794 0,15.888 12.925,28.815 28.814,28.815 15.889,0 28.816,-12.925 28.816,-28.815 0,-10.115 -5.417,-19.615 -14.136,-24.795 -1.796,-1.067 -2.911,-3.027 -2.911,-5.115 v -18.593 c 0,-3.28 2.67,-5.95 5.949,-5.95 z"
   id="path956"
   inkscape:connector-curvature="0" />

<path
   style="fill:#6598cb"
   d="m 1387.2906,300.299 c 11.818,0 23.157,5.653 30.332,15.12 l 1.461,1.928 h 13.464 v -58.102 h -61.35 c -1.789,0 -3.245,-1.456 -3.245,-3.245 v -18.593 c 0,-1.14 0.609,-2.209 1.589,-2.79 9.535,-5.663 15.459,-16.055 15.459,-27.12 0,-17.38 -14.139,-31.52 -31.52,-31.52 -17.379,0 -31.519,14.139 -31.519,31.52 0,11.064 5.925,21.456 15.464,27.122 0.978,0.58 1.586,1.647 1.586,2.788 V 256 c 0,1.789 -1.456,3.245 -3.245,3.245 h -61.347 v 61.35 c 0,1.789 -1.456,3.245 -3.245,3.245 h -18.594 c -1.14,0 -2.209,-0.609 -2.791,-1.589 -5.66,-9.535 -16.052,-15.459 -27.118,-15.459 -17.38,0 -31.52,14.139 -31.52,31.52 0,17.38 14.139,31.52 31.52,31.52 11.065,0 21.456,-5.926 27.121,-15.464 0.58,-0.978 1.647,-1.586 2.788,-1.586 h 18.593 c 1.789,0 3.245,1.456 3.245,3.245 v 65.677 h 158.131 v -62.432 h -13.463 l -1.46,1.928 c -7.176,9.469 -18.516,15.122 -30.335,15.122 -20.959,0 -38.011,-17.052 -38.011,-38.012 10e-4,-20.96 17.051,-38.011 38.01,-38.011 z"
   id="path970"
   inkscape:connector-curvature="0" />

<path
   inkscape:connector-curvature="0"
   id="path986"
   d="m 1484.2976,144.872 c -10.117,0 -19.618,5.417 -24.796,14.138 -1.065,1.795 -3.026,2.91 -5.114,2.91 h -18.593 c -3.28,0 -5.949,-2.669 -5.949,-5.949 V 97.329 h -58.644 c -3.281,0 -5.949,-2.67 -5.949,-5.949 V 72.788 c 0,-2.089 1.115,-4.049 2.912,-5.115 8.719,-5.176 14.134,-14.677 14.134,-24.794 10e-4,-15.889 -12.924,-28.816 -28.814,-28.816 -15.888,0 -28.815,12.927 -28.815,28.815 0,10.115 5.417,19.615 14.136,24.795 1.796,1.067 2.911,3.027 2.911,5.115 V 91.38 c 0,3.28 -2.669,5.949 -5.949,5.949 h -58.644 v 152.72 h 52.696 v -9.413 l -0.857,-0.649 c -10.14,-7.685 -16.193,-19.831 -16.193,-32.49 0,-22.45 18.264,-40.715 40.714,-40.715 22.45,0 40.715,18.265 40.715,40.715 0,12.659 -6.053,24.806 -16.191,32.489 l -0.857,0.649 v 9.414 h 52.696 v -58.644 c 0,-3.28 2.67,-5.949 5.949,-5.949 h 18.593 c 2.089,0 4.049,1.116 5.115,2.913 5.176,8.719 14.677,14.134 24.795,14.134 15.888,0 28.814,-12.927 28.814,-28.816 -10e-4,-15.888 -12.927,-28.815 -28.815,-28.815 z"
   style="fill:#ef4c35" /><path
   inkscape:connector-curvature="0"
   id="path988"
   d="m 1496.1966,144.872 c -10.117,0 -19.618,5.417 -24.796,14.138 -1.065,1.795 -3.026,2.91 -5.114,2.91 h -18.593 c -3.28,0 -5.949,-2.669 -5.949,-5.949 V 97.329 h -58.644 c -3.281,0 -5.949,-2.67 -5.949,-5.949 V 72.788 c 0,-2.089 1.115,-4.049 2.912,-5.115 8.719,-5.176 14.134,-14.677 14.134,-24.794 10e-4,-15.889 -12.924,-28.816 -28.814,-28.816 -15.888,0 -28.815,12.927 -28.815,28.815 0,10.115 5.417,19.615 14.136,24.795 1.796,1.067 2.911,3.027 2.911,5.115 V 91.38 c 0,3.28 -2.669,5.949 -5.949,5.949 h -58.643 v 152.72 h 52.696 v -9.413 l -0.857,-0.649 c -10.14,-7.685 -16.193,-19.831 -16.193,-32.49 0,-22.45 18.264,-40.715 40.714,-40.715 22.45,0 40.715,18.265 40.715,40.715 0,12.659 -6.053,24.806 -16.191,32.489 l -0.857,0.649 v 9.414 h 52.696 v -58.644 c 0,-3.28 2.67,-5.949 5.949,-5.949 h 18.593 c 2.089,0 4.049,1.116 5.115,2.913 5.176,8.719 14.677,14.134 24.795,14.134 15.888,0 28.814,-12.927 28.814,-28.816 -0,-15.888 -12.928,-28.815 -28.816,-28.815 z"
   style="fill:#ef4c35" />

<path
   style="fill:#f7971d"
   d="m 1648.9176,144.872 c -10.116,0 -19.618,5.417 -24.797,14.137 -1.067,1.796 -3.027,2.911 -5.115,2.911 h -18.59 c -3.28,0 -5.949,-2.669 -5.949,-5.949 V 91.92 h -152.723 v 58.102 h 9.414 l 0.649,-0.857 c 7.685,-10.139 19.83,-16.192 32.491,-16.192 22.449,0 40.713,18.265 40.713,40.715 0,22.45 -18.264,40.715 -40.713,40.715 -12.661,0 -24.809,-6.053 -32.492,-16.191 l -0.649,-0.857 h -9.413 v 52.695 h 58.644 c 3.28,0 5.949,2.669 5.949,5.949 v 18.595 c 0,2.089 -1.116,4.049 -2.913,5.117 -8.719,5.176 -14.134,14.677 -14.134,24.796 0,15.886 12.927,28.813 28.816,28.813 15.888,0 28.814,-12.925 28.814,-28.813 0,-10.12 -5.416,-19.621 -14.135,-24.796 -1.797,-1.065 -2.912,-3.027 -2.912,-5.117 v -18.595 c 0,-3.281 2.67,-5.949 5.949,-5.949 h 58.644 v -58.644 c 0,-3.28 2.67,-5.949 5.949,-5.949 h 18.59 c 2.089,0 4.049,1.115 5.117,2.911 5.176,8.72 14.677,14.136 24.796,14.136 15.888,0 28.815,-12.927 28.815,-28.816 -10e-4,-15.889 -12.927,-28.816 -28.815,-28.816 z"
   id="path1004"
   inkscape:connector-curvature="0" />

<path
   style="fill:#202121"
   d="m 1648.9176,130.81 c -13.45,0 -26.167,6.43 -34.216,17.049 h -6.174 v -56.48 c 0,-4.482 -3.631,-8.113 -8.113,-8.113 h -27.149 c -4.482,0 -8.113,3.631 -8.113,8.113 0,4.482 3.631,8.113 8.113,8.113 h 19.036 v 56.48 c 0,4.482 3.631,8.113 8.113,8.113 h 18.592 c 2.862,0 5.513,-1.509 6.975,-3.97 4.792,-8.067 13.581,-13.079 22.937,-13.079 14.695,0 26.651,11.956 26.651,26.652 0,14.696 -11.956,26.652 -26.651,26.652 -9.358,0 -18.147,-5.011 -22.936,-13.077 -1.462,-2.461 -4.114,-3.971 -6.976,-3.971 h -18.592 c -4.482,0 -8.113,3.631 -8.113,8.113 v 56.481 h -56.481 c -4.482,0 -8.113,3.631 -8.113,8.113 v 18.594 c 0,2.863 1.51,5.516 3.972,6.976 8.065,4.788 13.076,13.577 13.076,22.936 0,14.694 -11.955,26.649 -26.65,26.649 -14.696,0 -26.652,-11.955 -26.652,-26.649 0,-9.359 5.01,-18.147 13.076,-22.936 2.462,-1.462 3.972,-4.113 3.972,-6.976 v -18.594 c 0,-4.482 -3.631,-8.113 -8.113,-8.113 h -56.481 v -48.368 h 6.174 c 8.046,10.617 20.763,17.048 34.216,17.048 23.641,0 42.876,-19.235 42.876,-42.878 0,-23.643 -19.234,-42.878 -42.876,-42.878 -13.451,0 -26.167,6.43 -34.215,17.049 h -6.176 V 99.492 h 102.312 c 4.482,0 8.113,-3.631 8.113,-8.113 0,-4.482 -3.631,-8.113 -8.113,-8.113 h -110.424 -56.481 v -6.174 c 10.617,-8.046 17.047,-20.762 17.047,-34.215 0,-23.642 -19.234,-42.877 -42.878,-42.877 -23.644,0 -42.877,19.235 -42.877,42.877 0,13.45 6.429,26.165 17.048,34.214 v 6.176 h -56.479 v 0 0 c -4.482,0 -8.113,3.631 -8.113,8.113 V 256 312.482 h -6.176 c -8.046,-10.617 -20.76,-17.048 -34.214,-17.048 -23.643,0 -42.878,19.235 -42.878,42.877 0,23.642 19.235,42.878 42.878,42.878 13.45,0 26.165,-6.43 34.214,-17.05 h 6.176 v 56.481 0 0 c 0,4.482 3.631,8.113 8.113,8.113 h 28.769 c 4.482,0 8.113,-3.631 8.113,-8.113 0,-4.482 -3.631,-8.113 -8.113,-8.113 h -20.657 v -56.481 c 0,-4.482 -3.631,-8.113 -8.113,-8.113 h -18.593 c -2.862,0 -5.515,1.509 -6.975,3.971 -4.791,8.067 -13.579,13.079 -22.934,13.079 -14.696,0 -26.652,-11.956 -26.652,-26.652 0,-14.696 11.956,-26.652 26.652,-26.652 9.358,0 18.145,5.01 22.932,13.076 1.461,2.462 4.113,3.972 6.976,3.972 h 18.593 c 4.482,0 8.113,-3.631 8.113,-8.113 v -56.481 h 56.482 c 4.482,0 8.113,-3.631 8.113,-8.113 v -18.593 c 0,-2.862 -1.509,-5.515 -3.971,-6.975 -8.067,-4.792 -13.079,-13.58 -13.079,-22.935 0,-14.696 11.956,-26.652 26.651,-26.652 14.696,0 26.652,11.956 26.652,26.652 0,9.356 -5.011,18.144 -13.077,22.935 -2.462,1.461 -3.971,4.113 -3.971,6.975 V 256 c 0,4.482 3.631,8.113 8.113,8.113 h 56.482 v 48.368 h -6.178 c -8.047,-10.618 -20.762,-17.049 -34.213,-17.049 -23.642,0 -42.878,19.235 -42.878,42.879 0,23.644 19.235,42.879 42.878,42.879 13.451,0 26.166,-6.431 34.214,-17.051 h 6.177 v 48.37 h -102.491 c -4.482,0 -8.113,3.631 -8.113,8.113 0,4.482 3.631,8.113 8.113,8.113 h 110.605 56.481 v 6.174 c -10.616,8.046 -17.046,20.762 -17.046,34.215 0,23.642 19.234,42.877 42.876,42.877 23.642,0 42.878,-19.234 42.878,-42.877 0,-13.45 -6.429,-26.165 -17.048,-34.214 v -6.176 h 56.479 c 4.482,0 8.113,-3.631 8.113,-8.113 v -55.044 -10.269 -99.309 -56.481 h 6.173 c 8.047,10.617 20.765,17.048 34.217,17.048 23.642,0 42.877,-19.235 42.877,-42.878 0,-23.643 -19.235,-42.878 -42.877,-42.878 z m -269.605,110.901 c 10.617,-8.047 17.048,-20.764 17.048,-34.214 0,-23.642 -19.235,-42.878 -42.878,-42.878 -23.643,0 -42.877,19.235 -42.877,42.878 0,13.45 6.43,26.166 17.05,34.215 v 6.174 h -48.369 V 99.492 h 56.48 c 4.482,0 8.113,-3.631 8.113,-8.113 V 72.788 c 0,-2.862 -1.509,-5.514 -3.97,-6.975 -8.066,-4.792 -13.078,-13.58 -13.078,-22.935 0,-14.696 11.955,-26.652 26.651,-26.652 14.695,0 26.651,11.956 26.651,26.651 0,9.358 -5.011,18.145 -13.076,22.934 -2.461,1.462 -3.971,4.114 -3.971,6.976 V 91.38 c 0,4.482 3.631,8.113 8.113,8.113 h 56.481 v 56.48 c 0,4.482 3.631,8.113 8.113,8.113 h 18.593 c 2.862,0 5.515,-1.509 6.975,-3.97 4.791,-8.067 13.58,-13.079 22.936,-13.079 14.695,0 26.65,11.956 26.65,26.652 0,14.696 -11.955,26.652 -26.65,26.652 -9.358,0 -18.146,-5.011 -22.935,-13.076 -1.462,-2.462 -4.113,-3.972 -6.976,-3.972 h -18.593 c -4.482,0 -8.113,3.631 -8.113,8.113 v 56.481 h -48.369 v -6.176 z m 156.51,170.797 c -4.482,0 -8.113,3.631 -8.113,8.113 v 18.593 c 0,2.862 1.509,5.514 3.97,6.975 8.066,4.792 13.078,13.58 13.078,22.935 0,14.695 -11.956,26.651 -26.652,26.651 -14.695,0 -26.65,-11.956 -26.65,-26.651 0,-9.358 5.009,-18.146 13.075,-22.934 2.461,-1.462 3.971,-4.114 3.971,-6.976 v -18.593 c 0,-4.482 -3.631,-8.113 -8.113,-8.113 h -56.481 v -56.483 c 0,-4.482 -3.631,-8.113 -8.113,-8.113 h -18.594 c -2.862,0 -5.515,1.51 -6.976,3.971 -4.79,8.069 -13.577,13.08 -22.932,13.08 -14.696,0 -26.652,-11.957 -26.652,-26.654 0,-14.696 11.956,-26.654 26.652,-26.654 9.355,0 18.143,5.012 22.934,13.078 1.461,2.462 4.113,3.971 6.975,3.971 h 18.594 c 4.482,0 8.113,-3.631 8.113,-8.113 v -56.48 h 48.368 v 6.177 c -10.617,8.046 -17.048,20.764 -17.048,34.217 0,23.641 19.235,42.875 42.878,42.875 23.641,0 42.876,-19.233 42.876,-42.875 0,-13.454 -6.43,-26.171 -17.048,-34.217 v -6.177 h 48.368 v 91.198 10.269 46.93 h -56.479 v 0 z"
   id="path1020"
   inkscape:connector-curvature="0" />















<flowRoot
   xml:space="preserve"
   id="flowRoot817"
   style="font-style:normal;font-weight:normal;font-size:40px;line-height:1.25;font-family:sans-serif;letter-spacing:0px;word-spacing:0px;fill:#202121;fill-opacity:1;stroke:#202121;stroke-width:0.77830386;stroke-miterlimit:4;stroke-dasharray:none;stroke-opacity:1"
   transform="matrix(6.1836952,0,0,6.1836952,3973.9088,-82.000254)"><flowRegion
     id="flowRegion819"
     style="fill:#202121;fill-opacity:1;stroke:#202121;stroke-width:0.77830386;stroke-miterlimit:4;stroke-dasharray:none;stroke-opacity:1"><rect
       id="rect821"
       width="383.11389"
       height="248.31456"
       x="-643.25299"
       y="31.926157"
       style="fill:#202121;fill-opacity:1;stroke:#202121;stroke-width:0.77830386;stroke-miterlimit:4;stroke-dasharray:none;stroke-opacity:1" /></flowRegion><flowPara
     id="flowPara823"
     style="font-style:normal;font-variant:normal;font-weight:normal;font-stretch:normal;font-family:oneday;-inkscape-font-specification:oneday;fill:#202121;fill-opacity:1;stroke:#202121;stroke-width:0.77830386;stroke-miterlimit:4;stroke-dasharray:none;stroke-opacity:1">DODDLE60</flowPara></flowRoot></svg>